<?xml version="1.0" encoding="utf-8"?>
<!-- Svg Vector Icons : http://www.onlinewebfonts.com/icon -->
<!DOCTYPE svg PUBLIC "-//W3C//DTD SVG 1.1//EN" "http://www.w3.org/Graphics/SVG/1.1/DTD/svg11.dtd">
<svg version="1.1" xmlns="http://www.w3.org/2000/svg" xmlns:xlink="http://www.w3.org/1999/xlink" x="0px" y="0px" viewBox="0 0 1000 1000" enable-background="new 0 0 1000 1000" xml:space="preserve">
<metadata> Svg Vector Icons : http://www.onlinewebfonts.com/icon </metadata>
<g><g><path d="M911.6,186.4H88.4c-43.1,0-78.4,35.3-78.4,78.4v470.4c0,43.1,35.3,78.4,78.4,78.4h823.2c43.1,0,78.4-35.3,78.4-78.4V264.8C990,221.7,954.7,186.4,911.6,186.4z M892,225.6l-392,341l-392-341H892z M950.8,735.2c0,23.5-15.7,39.2-39.2,39.2H88.4c-23.5,0-39.2-19.6-39.2-39.2V264.8c0-11.8,3.9-19.6,11.8-27.4l439,380.2l439-380.2c7.8,7.8,11.8,15.7,11.8,27.4L950.8,735.2L950.8,735.2z"/></g><g></g><g></g><g></g><g></g><g></g><g></g><g></g><g></g><g></g><g></g><g></g><g></g><g></g><g></g><g></g></g>
</svg>